# xmcd
#
# Track frame offsets: 
#        150
#        17320
#        37627
#        71790
#        85277
#        112190
#        140017
#        172575
#        193570
#
# Disc length: 2837 seconds
#
# Revision: 2
# Processed by: cddbd v1.5.2PL0 Copyright (c) Steve Scherf et al.
# Submitted via: ExactAudioCopy v0.99pb5
#
DISCID=6b0b1309
DTITLE=Albert King - Crosscut Saw
DYEAR=1992
DGENRE=
TTITLE0=Honey Bee
TTITLE1=Ask Me No Questions
TTITLE2=I'm Gonna Move To The Outskirts of Town
TTITLE3=They Made The Queen Welcome
TTITLE4=Floodin' In California
TTITLE5=I Found Love In The Food Stamp Line
TTITLE6=Match Box Blues
TTITLE7=Crosscut Saw
TTITLE8=Why You So Mean To Me
EXTD=
EXTT0=
EXTT1=
EXTT2=
EXTT3=
EXTT4=
EXTT5=
EXTT6=
EXTT7=
EXTT8=
PLAYORDER=
